<?xml version="1.0" encoding="UTF-8"?>
<!DOCTYPE svg PUBLIC "-//W3C//DTD SVG 1.1//EN" "http://www.w3.org/Graphics/SVG/1.1/DTD/svg11.dtd">
<!-- Creator: CorelDRAW 2021.5 -->
<svg xmlns="http://www.w3.org/2000/svg" xml:space="preserve" width="7.16938in" height="7.16898in" version="1.1" style="shape-rendering:geometricPrecision; text-rendering:geometricPrecision; image-rendering:optimizeQuality; fill-rule:evenodd; clip-rule:evenodd"
viewBox="0 0 7982.02 7981.57"
 xmlns:xlink="http://www.w3.org/1999/xlink"
 xmlns:xodm="http://www.corel.com/coreldraw/odm/2003">
 <defs>
  <style type="text/css">
   <![CDATA[
    .fil4 {fill:black}
    .fil0 {fill:#009933}
    .fil2 {fill:#83DC00}
    .fil1 {fill:#FEFFFF}
    .fil3 {fill:#FFFF66}
   ]]>
  </style>
 </defs>
 <g id="Layer_x0020_1">
  <metadata id="CorelCorpID_0Corel-Layer"/>
  <g id="_2764455706320">
   <path class="fil0" d="M2141.1 1667.2c-420.48,-97.96 -718.14,87.22 -1003.46,372.55 -51.35,51.35 -146.76,148.41 -190.69,203.27 -86.27,107.7 -180.21,208.42 -266.66,315.72 -71.74,89.05 -156.68,165.82 -239.15,246.17 -15.3,14.9 -36.55,30.54 -53.64,43.42 -271.14,204.22 -387.49,41.81 -387.49,166.34 0,22.79 65.59,57.18 104.21,95.63 128.71,128.17 165.15,352.23 181.12,538.29l54.73 664.68c17.61,124.93 31.34,237.7 63.31,347.79 31.45,108.29 66.14,207.35 116.46,294.63 74.3,128.88 173.95,238.58 301.29,315.35 35.14,21.18 96.03,57.64 138.11,67.44 -36.64,54.73 -68.11,121.57 -90.69,189.08 -147.64,441.38 80.67,874.16 286.58,1242.27 64.9,116.03 134.61,224.63 194.35,342.35 9.84,19.39 16.84,35.97 26.81,53.12 19.67,33.83 33.14,67.43 51.15,103 190.69,376.51 50.22,518.82 61.69,566.66 5.24,21.88 23.38,38.58 46.77,38.58 32.2,0 117.82,-125.61 308.32,-125.61 158.14,0 254.06,16.38 402.1,48.96 202.25,44.51 394.91,104.16 597.51,144.73 202.31,40.51 448.71,60.5 653.92,9.61 162.12,-40.2 280.84,-119.34 394.78,-233.27 19.42,-19.42 43.12,-52.95 64.23,-67.09 17,11.38 98.18,105.78 131.27,131.37 50.34,38.93 102.53,73.96 159.91,102.72 341.07,170.96 773.96,76.75 1127.06,-3.44 236.43,-53.69 733.74,-212.11 960.34,-39.93 23.21,17.64 50.21,49.08 76.54,49.08 94.47,0 5.71,-116.91 5.71,-222.67 0,-92.98 29.23,-198.38 57.02,-268.43 14.68,-36.99 29.67,-70.61 47.65,-106.5 277.57,-554.26 821.55,-1137.36 529.02,-1794.64 -14.94,-33.57 -42.8,-66.32 -51.31,-102.85 72.2,-16.82 198.87,-104.12 255.52,-161.28 18.41,-18.58 32.81,-32.98 51.38,-51.38 197.72,-195.94 284.29,-560.05 314.98,-832.66 3.52,-31.26 9.05,-62.6 11.4,-91.37 7.61,-93.09 13.52,-196.14 26.62,-287.41 8.97,-62.51 10.67,-130.44 17.92,-187.63 29.1,-229.56 48.28,-555.67 253.89,-688.19 22.99,-14.82 50.35,-21.88 50.35,-58.14 0,-31.97 -17.31,-45.56 -50.9,-46.16 -119.37,-2.15 -135.32,2.25 -247.99,-54.62 -78.11,-39.42 -211.95,-162.15 -270.39,-232.06l-228.6 -273.85c-17.09,-19.15 -29.13,-37.75 -45.88,-56.9l-231.34 -271.1c-59.27,-70.9 -136.01,-138.55 -209.53,-195.85 -36.5,-28.44 -73.87,-58.98 -116.05,-83.79 -23.79,-14 -36.51,-23.41 -61.02,-36.04 -137.1,-70.68 -249.38,-114.22 -428.19,-114.22 -56.82,0 -110.63,6.75 -164.2,18.51 -16.09,3.53 -31.21,9.56 -52.76,10.04 0,-187.39 -77.56,-357.58 -176.1,-491.92 -32.63,-44.49 -66.29,-78.77 -105.1,-117.58 -196.03,-196.03 -445.62,-306.1 -693.17,-425.9 -13.9,-6.73 -23.57,-9.63 -36.15,-15.24 -140.46,-62.66 -286.55,-123.68 -420.71,-195.93 -158.36,-85.28 -350.72,-204.07 -389.68,-392.53 -6.96,-33.64 -10.54,-62.36 -51.84,-62.36 -63.78,0 -40.66,100.84 -119.87,205.57 -112.8,149.15 -296.16,233.84 -462.58,308.22 -52.05,23.26 -102.43,42.8 -156.04,66.64 -294.13,130.83 -614.53,243.85 -847.35,477.27 -151.04,151.42 -252.38,331.9 -275.48,609.51z"/>
   <path class="fil1" d="M181.08 3048.45c35.41,62.29 82.74,79.71 138.32,263.64 32.08,106.15 48.68,222.32 60.76,339.18 44.95,434.85 22.14,973.66 267.56,1330.64 53.3,77.54 119.82,144.48 202.22,197.37 38.54,24.73 83.63,48.36 131.26,68.72 46.91,20.06 129.57,30.13 81.47,102.56 -386.77,582.3 82.17,1193.03 375.47,1730.15 94.8,173.59 199.36,381.72 181.3,623.99 71.58,-19.11 101.63,-40.43 190.42,-49.12 72.1,-7.05 146.02,-3.25 217.47,5.19 463.1,54.7 1140.53,378.31 1589.44,146.97 291.61,-150.28 306.99,-371.85 383.83,-257.78 28.39,42.13 75.88,96.65 108.46,125.57 83.98,74.54 163.13,131.6 300.94,172.83 569.52,170.37 1312.11,-265.12 1791.75,-164.6 52.99,11.1 82.47,28.06 125.09,41.08 -15.23,-246.09 86.78,-440.21 184.61,-613.78 236.94,-420.37 645.97,-949.6 499.78,-1452.76 -19.81,-68.19 -56.83,-150.82 -93.83,-208.81 -10.89,-17.07 -36.23,-47.75 -38.93,-65.82 -8.79,-58.84 73.18,-66.31 114.95,-86.14 49.03,-23.27 88.61,-45.93 126.62,-73.09 75.9,-54.21 144.48,-124.66 198,-207.25 105.39,-162.63 165.42,-379.89 199.82,-604.93 55.84,-365.35 45.36,-904.14 198.45,-1206.37 40.28,-79.52 53.63,-77.89 81.95,-122.71 -22.25,-12.85 -72.72,-16.03 -151.21,-59.03 -52.29,-28.65 -167.52,-113.98 -208.52,-156.97 -170.05,-178.33 -258.2,-295.29 -415.86,-486.26 -148.11,-179.41 -340.47,-399.68 -545.1,-511.05 -166.02,-90.36 -326.74,-126.18 -521.77,-87.55 -49.64,9.83 -137.42,51.73 -162.92,12.69 -10.33,-15.82 -15.99,-154.36 -22.01,-189.1 -9.99,-57.64 -26.4,-113.46 -47.2,-164.07 -233.88,-569.26 -1074.59,-704.72 -1513.66,-1021.34 -65.85,-47.49 -65.46,-55.84 -112.79,-98.6 -55.09,-49.77 -64.92,-88.34 -94.82,-123.68l-42.82 61.49c-14.81,20.72 -29.96,37.32 -46.67,56.2 -254.12,287.09 -1016.5,440.3 -1363.27,749.2 -165.83,147.71 -274.29,290.7 -306.38,539.31 -6.45,49.96 9.58,157.89 -40.69,170.94 -34.31,8.91 -176.46,-63.63 -372.14,-36.9 -226.33,30.92 -366.77,140.19 -520.8,267.64 -69.87,57.82 -124.92,119.98 -188.19,182.92 -63.96,63.61 -288.76,334.36 -367.35,426.28 -9.4,10.99 -12.7,17.82 -22.97,28.67l-154.58 165.01c-99.96,95.08 -243.7,217.66 -395.49,239.46z"/>
   <path class="fil0" d="M2351.69 1967.53c-216.73,-96.12 -420.38,-157.09 -674.68,-56.39 -153.13,60.64 -311.38,188 -418.72,306.4 -17.06,18.83 -36.69,35.78 -53.01,55.34l-379.64 453.95c-114.5,132.76 -260.35,294.1 -459.19,379.55 50.14,108.06 72.34,108.56 115.42,259.88 155.54,546.27 -61.79,1154.42 321.25,1580.21 114.82,127.64 321.14,224.4 499.21,265.35 -12.8,25.76 -100.64,102.88 -178.27,257.36 -366.88,730.05 567.93,1406.64 606.13,2058.34 267.59,-51.02 370.18,-47.28 650.55,26.1 196.97,51.55 381.17,121.8 584.38,163.91 231.98,48.07 444,33.65 624.38,-74.2 113.87,-68.08 209.86,-168.16 285.62,-273.94 13.18,-18.41 25.01,-34.55 37.54,-53.71 14.02,-21.43 21.55,-39.35 38.38,-57.88 13.62,13.01 44.96,74.38 57.81,95.54 54.88,90.44 136.44,183.02 222.46,245.6 360.63,262.33 835.64,110.98 1226.56,11.62 169.75,-43.14 374.67,-92.33 554.39,-89.6 76.22,1.16 123.55,14.22 193.68,24.16 25.38,-666.43 757.41,-1091.12 690.26,-1726.13 -16.56,-156.59 -86.01,-306.39 -169.23,-430.19l-84.93 -118.84c23.93,-11.35 113.92,-28.81 147.04,-39.59 899.79,-292.76 459.13,-1535.27 813.71,-2093.5 -105.36,-58.15 -139.39,-54.06 -254.3,-150.97 -38.62,-32.58 -74.22,-63.19 -107.68,-97.89 -33.75,-35 -62.51,-67.45 -97.72,-107.74 -61.14,-69.96 -121.48,-152.59 -179.4,-231.85 -28.47,-38.95 -58.17,-77.68 -88.17,-117.25 -222.46,-293.42 -468.43,-578.67 -903.5,-518.95 -131.56,18.06 -208.01,53.73 -318.96,90.56 13.53,-192.45 26.95,-308.14 -49.16,-498.27 -215.79,-539.06 -963.57,-633.06 -1401.96,-927.57 -41.38,-27.8 -74.09,-55.94 -110.29,-83.84 -28.75,-22.16 -69.31,-66.13 -92.37,-100.09 -1.42,0.82 -3.35,0.71 -3.98,2.86l-95.32 101.27c-115.64,107.92 -211.94,167.9 -368.33,236.99 -188,83.05 -388.89,144.98 -577.47,227.41 -203.37,88.89 -358.72,195.78 -459.52,345.61 -90.45,134.44 -132.73,288.46 -142.31,456.88 -3.6,63.34 5.44,148.26 -0.68,203.51z"/>
   <path class="fil2" d="M2406.98 2047.36c-42.61,-11.02 -131.92,-78.98 -292.82,-118.88 -313.47,-77.74 -535.47,55.31 -750.33,246.25l-247.58 271.74c-76.09,91.76 -188.01,238.29 -260.02,316.9 -116.4,127.07 -201.27,227.04 -354.51,324.74 -20.93,13.34 -51.26,25.73 -67.68,40.76 28.67,83.38 62.61,99.88 104.91,271.57 120.28,488.15 -32.74,1080.56 245,1450.97 212.26,283.08 561.14,307.53 607.63,338.25 -40.07,46.91 -54.17,50.2 -111.3,121.61 -117.38,146.76 -194.95,310.41 -194.47,518.25 0.7,306.07 198.89,628.59 322.09,836.03 113.91,191.8 338.05,534.47 362.75,803.21 146.49,-13.4 153.52,-35.53 340.19,-15.23 524.21,57.01 1044.48,437.47 1503.98,118.12 110.05,-76.48 196.85,-185.68 268.65,-296.71l51.55 -85.23c2.97,-5.49 5,-10.17 8.14,-14.75l15.78 -17.52c37.4,117.63 170.75,301.45 266.52,378.78 487.82,393.85 1178.01,-48.6 1746.54,-61.2 65.99,-1.46 137.89,13.62 190.54,12.18 74.94,-486.62 308.49,-679.65 534.25,-1081.62 253.39,-451.15 190.97,-738.97 -97.71,-1111.59 -17.34,-22.38 -30.25,-34.22 -46.85,-59.18 224.76,-22.19 422.31,-119.73 533.04,-233.51 352.27,-361.95 248.98,-1061.03 355.33,-1557.52 35.81,-167.14 49.57,-157.92 96.73,-287.42 -78.33,-22.9 -258.6,-158.71 -301.27,-206.56 -45.08,-50.55 -97.71,-97.84 -146.51,-161.69 -95.42,-124.84 -264.29,-354.65 -354.56,-461.93 -223.55,-265.68 -447.66,-436.14 -835.13,-354.33 -158.02,33.37 -201.13,72.74 -305.98,106.53 27.2,-238.65 52.15,-447.63 -91.79,-671.78 -215.64,-335.81 -652.62,-456.26 -1005.73,-621.49 -171.73,-80.36 -307.18,-143.82 -445.26,-268.35 -18.42,-16.62 -36.56,-36.97 -54.38,-50.31 -17.18,9.92 -29.11,30.46 -48.45,50.41 -396.37,408.87 -1168.23,384.01 -1440.29,854.92 -116.97,202.47 -119.5,416.04 -101,675.61z"/>
   <path class="fil0" d="M3716.84 2140.7c-562.83,43.47 -1091.91,312.37 -1461.16,634.68 -20.47,17.87 -33.9,32.6 -53.16,49.48 -191.42,167.77 -382.31,437.6 -498.18,661.08 -327.94,632.51 -335.69,1370.99 -27.69,2037.26 60.17,130.18 152.11,279.07 236.76,391.18 31.21,41.34 61.56,78.85 92.94,120.67l-142.62 329.4c114.61,0.8 227.4,0.8 340.18,0.8 163.6,0 119.84,-17.45 204.31,47.82 429.84,332.15 1010.21,524.19 1582.79,524.19 562.08,0 1105.71,-178.4 1533.1,-488.16 146.24,-105.99 71,-83.84 254,-83.84 112.79,0 225.58,0 338.38,0l-142.07 -329.66c133.64,-173.41 233.75,-302.28 330.96,-512.37 91.5,-197.76 161.56,-401.05 198.28,-641.17 77.29,-505.41 -21.88,-1003.45 -225.95,-1396.16 -113.39,-218.2 -191.44,-319.11 -340.18,-499.47 -15.5,-18.8 -33.72,-35 -49.54,-53.1 -108.82,-124.58 -260.34,-243.31 -395.74,-340.82 -291.93,-210.24 -771.43,-416.52 -1227.95,-451.42l-270.84 -619.57 -276.63 619.19z"/>
   <polygon class="fil1" points="1957.9,6302.57 6023.26,6303.52 3993.24,1674.07 "/>
   <path class="fil0" d="M2064.4 6234.57l3838.92 0.49 -237.6 -544.37c-77.1,-183.86 -159.11,-364.16 -240.37,-547.48l-1440.94 -3279.97 -1920 4371.34z"/>
   <path class="fil3" d="M2131.98 5758.09l1462.69 -3339.16c-183.71,23.13 -391.15,92.28 -544.34,157.61 -172.93,73.75 -313.98,161.09 -446.83,255.36 -123.01,87.28 -268.8,221.94 -366.09,336.31 -610.78,718 -695.63,1679.05 -183.15,2485.51l52.72 78.35c2.32,3.41 7.54,10.7 10.06,13.35l10.84 9.55c0.97,0.82 2.67,2.19 4.11,3.13z"/>
   <path class="fil3" d="M5852.94 5759.11c466.02,-599.09 537.67,-1491.19 180.91,-2166.73 -141.05,-267.08 -259.68,-407 -455.72,-594.84 -287.99,-275.94 -763.2,-523.12 -1188.67,-579.55l1463.47 3341.12z"/>
   <path class="fil1" d="M4645.28 4916.97l-70.57 2.04c8.89,-33.5 -2.69,-8.28 12.59,-19.13 0.41,-0.29 1.99,-0.73 2.36,-0.91l-2.93 -15.6c-10.48,19.21 -8.91,11.14 -74.3,10.98l-16.9 -56.1c2.1,22.94 9.24,30.62 11.93,56.13l-94.81 -11.71 0.32 -76.97c-0.3,-8.02 -1.12,-5.78 0.67,-14.47 3.22,-15.66 -1.95,-3.3 5.59,-13.92 34.43,3.2 46.86,37.42 67.91,46.11 -6.68,-31.96 -13.67,-15.97 -27.82,-44.58l73.61 9.17c-25.55,-68.77 -180.39,-191.98 -289.62,-226.97 -21.96,-7.04 -124.78,-31.79 -135.75,-27.61l61.9 10.73c-1.59,18.16 -4.65,22.85 -6.57,35.94 -2.21,15.07 -2.23,30.38 -2.51,45.65 3.77,-2.24 38.14,-38.17 60.71,-8.01 28.49,38.06 -34.09,50.76 -64.5,53.84l-27.55 -27.21c-2.62,38.33 0.83,20.41 -11.95,22.45 -1.17,0.18 -9.13,-2.76 -13,2.27 -18.09,23.56 25.08,14.22 -27.23,38.86 3.52,-75.59 33.26,-185.23 28.22,-255.11l-185.64 0.54 28.52 219.59c-5.48,-6.51 -3.81,-2.15 -8.08,-12.69l-16.92 -131.23c-67.35,9.31 -135.72,34.15 -186.53,60.22 31.44,-8.78 38.31,-21.12 78.82,-25.56l20.84 48.48 -20.97 19.65c-12.88,-10.43 -15.46,-17.61 -29.65,-27.13 -13.79,25.61 -37.16,182.7 -34.9,214.85 0.95,13.57 1.03,25.91 1.25,39.54 24.48,-4.34 18.06,-11.12 35.8,-32.2 57,-67.76 49.79,8.7 111.52,-7.99 24.99,-6.76 13.19,-14.38 39.68,0.1 11.85,6.48 25.82,18.4 32.87,26.08l21.47 161.29c-69.05,-37.11 -60.76,-44 -174.78,-60.54 -96.67,-14.02 -640.93,-25.91 -733.38,-18.01 44.95,62.69 80.17,47.15 192.32,46.53 184.42,-1.03 596.77,0.68 691.15,164.5 -33.97,-20.08 -24.02,-31.08 -109.26,-73.89 -133.17,-66.88 -346.17,-88.73 -496.25,-85.3 -90.94,2.08 -68.72,10.62 -149.35,-3.78 13.65,50.06 94.34,146.4 126.34,179.91 160.54,168.11 376.91,279.19 633.92,287.01 187.05,5.69 364.04,-41.87 493.91,-118.67 68.37,-40.43 122.67,-80.84 173.79,-128.82 39.99,-37.53 110.13,-112.02 138.43,-171.61 -18.63,4.8 -21.42,7.44 -39.11,15.28 -1.01,0.45 -12.05,4.34 -12.07,4.34 -0.31,0 -1.64,-0.19 -1.9,-0.26 -0.24,-0.07 -1.35,-0.77 -1.55,-0.89 -0.21,-0.13 -1.15,-1.28 -1.32,-1.44 -0.19,-0.18 -1.02,-1.68 -1.16,-1.85 -0.15,-0.18 -0.55,-1.49 -1.05,-2.07 -186.18,-14.06 -230.41,-8.74 -432.32,43.1 34.39,-28.58 226.7,-57.53 292.08,-63.98 102.36,-10.1 250.87,4.05 306.75,-61.17 -162.52,-0.83 -229.3,-3.66 -400.69,16.63 -29.28,3.47 -58.94,11.1 -90.12,11.78 102.98,-31.3 318.49,-31.67 438.48,-31.67 49.07,-0.01 73.77,6.54 102.33,-25.22l-99.94 -6.38c181.84,-397.23 34.97,-845.39 -302.85,-1079.51 -50.08,-34.71 -178.15,-108.46 -249.93,-118.71l81.25 36.2c75.24,34.11 155.03,88.83 211.32,142.65 260.89,249.46 314.66,646.34 114.83,946.76 -16.77,25.21 -37.96,46.77 -47.75,69.68z"/>
   <path class="fil1" d="M5939.22 5953.62c246.11,-278.46 434.01,-707.62 490.81,-1099.55 94.55,-652.55 -103.47,-1279.65 -497.81,-1753.59 -15.21,-18.27 -31.77,-37.06 -46.84,-56.05l-96.03 -103.82c-35.14,-36.15 -63.72,-58.79 -102.47,-97.22 -41.89,-41.54 -176.1,-144.45 -222.58,-177.19 -290.26,-204.52 -711.06,-399.14 -1160.07,-443.17 3.82,15.32 53.33,133.55 59.53,139.06 10.49,9.32 133.78,28.59 159.97,34.39 102.83,22.75 206.71,53.14 300.27,87.81 295.48,109.52 507.15,243.46 734.05,430.85 78.59,64.91 217.24,211.6 284.57,297.61 90.57,115.7 158.98,219.74 231.49,356.45 303.7,572.55 310.54,1281.49 19.58,1884.89 -57.16,118.54 -111.02,204.05 -181.41,303.94 -9.18,13.03 -35.61,40.79 -33.69,57.33 0.77,6.65 54.46,127.65 60.65,138.26z"/>
   <path class="fil1" d="M2042.78 5953.6c11.72,-19.82 51.63,-108.7 58.55,-130.39 7.36,-23.06 -10.33,-35.15 -24.49,-55.08 -457.3,-643.69 -527.08,-1407.3 -202.65,-2129.81 148.93,-331.66 403.23,-614.98 680.21,-827.04 215.01,-164.62 479.26,-296.35 754.19,-376.14 50.35,-14.61 98.12,-27.24 149.7,-38.66 76.79,-16.99 148.79,-14.33 166.27,-44.95l22.6 -51.76c10.52,-23.79 24.39,-51.5 30.64,-76.74 -442.53,43.35 -871.55,239.24 -1156.76,440.79 -39.59,27.97 -79.58,58.06 -113.99,85.81 -77.49,62.51 -144.21,119.12 -211.57,188.08l-186.9 212.77c-31.38,39.22 -55.62,75.65 -84.25,115.65 -431.82,603.29 -527.82,1498.41 -189.64,2198.81 89.98,186.35 191.77,356.84 308.09,488.65z"/>
   <path class="fil3" d="M5167.97 6366.18l-2350.28 -0.89c25.95,29.92 190.44,104.45 242.9,126.29 497.84,207.29 1060.88,249.84 1582.28,98.36 110.05,-31.98 459.4,-158.77 525.1,-223.77z"/>
   <path class="fil1" d="M3198.16 5873.41c357.79,87.51 818.66,120.82 1184.85,62.31 69.69,-11.13 312.52,-55.46 357.01,-83.39l-142.32 -247.22 -284.07 50.57c-224.09,29.72 -432.05,27.48 -655.97,-0.27 -105.42,-13.07 -205.33,-37.57 -306.12,-50.61l-153.37 268.61z"/>
   <path class="fil1" d="M3991.01 6860.14c425.06,0 847.87,-104.51 1206.04,-298.37 74.1,-40.11 251.18,-142.12 306.71,-195.38l-216.67 -1.13c-33.98,0 -49.14,15.91 -73.51,30.24l-201.25 106.76c-545.24,252.77 -1163.23,290.75 -1741.32,115.71 -102.92,-31.16 -205.18,-72.29 -297.36,-113.94 -42.73,-19.31 -98.59,-46.95 -136.46,-68.94 -33.28,-19.33 -106.08,-69.83 -142.26,-69.83l-216.68 0.89c54.01,51.78 230.29,154.83 303.03,193.61 366.8,195.58 774.04,300.37 1209.73,300.37z"/>
   <path class="fil1" d="M4689.09 5726.73l76.09 135.04c-128.94,99.89 -11.23,151.52 48.36,122.33 41.27,-20.22 120.27,-128.17 145.97,-162.46 60.04,-80.13 170.49,-222.77 251.57,-284.87 16.56,-12.68 32.66,-22.81 43.97,-38.97 -62.5,4.84 -145.13,26.75 -192.98,-8.65 -58.99,-43.64 -26.19,-111.1 -13.31,-172.6 -123.47,23.55 -185.24,192.09 -272.04,305.27 -15.03,19.6 -28.47,36.23 -43,53.91 -14.3,17.39 -29.16,30.95 -44.63,50.99z"/>
   <path class="fil1" d="M2689.96 5514.76c29.49,33.88 76.72,61.86 99.38,89.07l272.61 321.06c34.96,41.19 97.68,104.49 174.67,53.23 5.39,-30.49 0.76,-40.27 -16.43,-57.4 -13.66,-13.62 -25.78,-25.99 -45.25,-33.89l77.74 -141.54c-6.34,-18.89 -65.93,-80.25 -86.89,-106.83 -75.43,-95.71 -172.64,-296.64 -274.83,-305.42 67.31,225.33 -82.42,185.63 -201.01,181.73z"/>
   <path class="fil1" d="M3191.66 4922.96l206.22 0.07c-30.4,-61.48 -116.99,-122.2 -160.24,-332.74 -76.15,-370.67 140.99,-722.4 478.41,-851.55 27.59,-10.56 66.59,-18.51 91.05,-32.36 -116.63,3.01 -272.12,98.56 -344.32,150.1 -324.96,231.97 -438.76,653.13 -296.55,1027.56 2.1,5.53 6.42,17.56 8,20.55 12.81,24.25 0.15,10.47 17.43,18.37z"/>
   <path class="fil1" d="M3945.61 3432.48l-175.61 0.19 139.97 95.69 -52.06 150.39 142.88 -90.03c36.08,22.29 107.37,76.87 143.03,92.47l-53.45 -152.14c41.53,-33.03 103.42,-62.05 140.58,-96.46l-165.72 -0.12c-12.23,-5.54 -4.93,0.14 -12.54,-11l-50.18 -139.86 -8.75 15.71c-3.26,7.21 -5.5,14.53 -7.78,20.93 -4.78,13.37 -8.98,24.34 -13.62,37.67 -8.4,24.13 -19.19,52.76 -26.76,76.55z"/>
   <path class="fil0" d="M4161.43 4675.22c15.53,37.66 49.73,52.24 26.35,85.77 -20.46,29.34 -14.66,-14.51 -24.93,17.29 -3.01,9.33 -3.2,11.26 11.83,27.58 12.06,13.11 22.64,22.93 31.97,35.88 -16.05,33.76 -6.42,35.37 -36.5,25.02 -0.65,22.04 -3.24,14.28 12.93,22.74l-11.75 2.03c-0.46,0.18 -2.06,0.98 -3.01,1.6 3.14,27 11.09,27.03 3.93,44.69 -8.22,-8 -17.75,-24.27 -26.43,-28.86 -18.14,-9.61 -21.11,1.55 -42.62,7.32 7.28,-54.27 -10.61,-19.19 -8.15,-88.44 1.17,-32.82 -15.83,3.71 8.68,-38.47 18.24,-31.38 13.21,-63.52 3.57,-91.63 -46.67,12.45 -34.08,23.63 -51.67,162.69 -7.61,60.14 -21.2,132.58 -23.91,191.52 51.86,-46 134.45,-85.73 225.94,-102.1 -5.15,-13.41 -4.26,-13.29 -4,-14.27 14.53,15.9 40.37,2.43 69.48,-0.53l170.47 -12.55c71.29,-4.93 70.47,9.29 81.59,-17.95 -1.36,-0.92 -3.59,-3.52 -4.45,-2.13l-19.92 -5.11c-6.66,-0.65 -21.25,0.29 -28.81,0.29l-9.5 17.5c-3.33,-18.53 1.24,-10.64 -13.76,-17.33l-87.45 -11.68 -6.72 35.5c0.04,-21.12 2.74,-22.02 2.04,-40.96l-33.02 -4.76c-13.54,16.07 -9.79,10.17 -11.41,33.08 -34.09,-8.51 -52.13,-5.32 -67.33,19.77l7.53 -46.76c-16.65,-5.37 -10.85,4.27 -28.43,-8.42 -2.13,-1.53 -3.23,-3.76 -8.78,-8.17 7.44,-10.29 7.48,-10.27 20.02,-20.52l25.34 -20.25c-18.31,-20.94 -15.05,5.78 -35.29,-28.55l59.35 -56.05c-22.51,-13.36 -40.99,-20.86 -54.12,-39.02l-2.27 18.2c-0.14,0.69 -0.39,2.62 -0.94,3.8 -13.03,-35.73 -13.46,-0.07 -26.76,-22.28 -4.08,-6.81 -5.51,-10.04 -9.81,-17.5l-32.69 -2.9 -5.75 -16.28 -40.83 11.19z"/>
   <path class="fil1" d="M4133.78 4225.81c73.41,-153.59 -41.03,-186.78 -89.49,-242.33l-26.18 -34.96c-31.78,64.94 -147.92,89.58 -142.11,196.59 5.29,97.25 43.07,78.19 86.44,78.66 56.88,0.61 114.57,2.73 171.34,2.04z"/>
   <path class="fil4" d="M3975.87 5900.83c87.3,12.03 189.63,3.5 191.4,-82.84 2.1,-102.28 -104.52,-87.92 -193.47,-85.68l2.07 168.52z"/>
   <path class="fil4" d="M3439.75 5863.4l44.54 4.3 17.36 -111.32c6.86,27.12 11.83,51.21 16.51,77.87 8.33,47.52 2.91,41.26 56.48,42.25l51.27 -100.23c-1.35,33.17 -15.31,76.3 -8.72,106.74l41.9 4.31c4.88,-43.18 28.51,-135.49 18.43,-167.69l-67.41 -9.22 -50.78 100 -26.9 -109.3 -69.76 -7.19 -22.93 169.47z"/>
   <path class="fil4" d="M4464.29 5799.93c-88.62,-62.47 -65.56,-98.37 -147.26,-84.77 3.04,37.37 14.38,138.74 27.98,167.13l39.7 -3.41 -11.53 -101.38c18.29,9.59 82.86,69.78 96.17,88.23l50.26 -4.47 -22.31 -168.03 -40.45 2.86c-10.81,30.44 7.96,70.79 7.43,103.86z"/>
   <path class="fil4" d="M3701.33 5891.91l49.79 3.8 22.67 -37.06 87.97 5.04 16.49 38.29 51.31 1.98c-6.26,-23.65 -72,-160.36 -83.21,-174.99l-48.03 -1.51 -96.98 164.45z"/>
   <polygon class="fil1" points="3899.94,4447.05 4128.6,4450.63 4141.81,4368.43 4053.81,4367.41 4048.11,4367.12 3887.14,4367.84 "/>
   <path class="fil1" d="M3908.38 4363.78c50.97,-1.46 14.42,0.27 27.84,-73.03l29.87 -0.33 2.95 73.1c36.83,0.69 30.03,18.02 30.03,-69.71l26.19 -3.39c27.03,42.44 -27.38,73.35 43.71,73.45l0.15 -71.76 32.36 -1.33c6.68,81.1 -16.18,68.87 21.44,72.96l0 -105.25 -214.71 0 0.17 105.29z"/>
   <path class="fil1" d="M3205.07 6010.3c59.38,29.58 164.04,34.32 188.43,-85.43l-170.64 -28.77c35.88,43.32 59.14,87.98 -17.8,114.19z"/>
   <path class="fil1" d="M4561.46 5918.71c20.05,134 125.6,95.69 185.85,85.09 -23.86,-12.82 -76.09,-26.47 -51.48,-85.67 7.29,-17.53 14.3,-23.03 21.87,-38.13l-156.24 38.72z"/>
   <path class="fil0" d="M3887.05 4766.16c14.82,-20.29 10.91,-34.1 30.88,-59.7l20.35 97.92c14.53,7.18 20.15,12.86 29.21,22.68l-19.55 -153.1c-29.61,12.29 -20.27,10.45 -15.11,21.67 0.07,0.14 1.08,0.72 1.09,1.28 -3.56,-4.66 -5.32,-4.36 -8.07,-6.86 -27.67,-25.14 -7.42,-18.62 -37.35,-31.44 -18,-7.71 -46.95,-19.03 -56.56,7.89 -3.88,10.87 -0.5,24.33 2.49,34.67 9.89,34.2 13.13,66.57 52.63,64.99z"/>
   <path class="fil1" d="M4577.2 4337.27l-72.18 0.71 55.72 34.61 -21.09 54.43c87.37,-45.35 44.51,-31.27 126.54,-0.95l-20.23 -51.91 52.07 -33.1c0.93,-0.75 2.54,-2.14 3.73,-3.31l-71.07 -0.38 -26.47 -53.97c-9.47,16.37 -17.16,36.02 -27.02,53.87z"/>
   <path class="fil1" d="M3399.82 4336.03l-66.91 1.99 24.45 18.62c9.74,6.19 19.78,11.66 26.8,16.39l-18.87 51.68c76.01,-22.78 26.03,-48.09 114.78,3.07l-18.69 -54.09 51.66 -35.73 -64.46 -0.88 -24.6 -53.42 -24.17 52.36z"/>
   <path class="fil1" d="M4024.99 5868.74c53.62,2.07 91.05,4.66 91.4,-50.71 0.38,-60.77 -36.77,-55.59 -89.72,-54.54l-1.67 105.24z"/>
   <path class="fil4" d="M4226.63 5892.14l48.68 -1.24 -14.06 -166.12 -46.56 -2.24c-5.53,36.58 9.37,126.85 11.94,169.6z"/>
  </g>
 </g>
</svg>
